<?xml version="1.0" encoding="utf-8"?>
<!-- Generator: Adobe Illustrator 16.0.0, SVG Export Plug-In . SVG Version: 6.00 Build 0)  -->
<!DOCTYPE svg PUBLIC "-//W3C//DTD SVG 1.1//EN" "http://www.w3.org/Graphics/SVG/1.1/DTD/svg11.dtd">
<svg version="1.1" xmlns="http://www.w3.org/2000/svg" xmlns:xlink="http://www.w3.org/1999/xlink" x="0px" y="0px" viewBox="0 0 72 72" enable-background="new 0 0 72 72" xml:space="preserve">
<g id="waves_fill" display="none">
</g>
<g id="Layer_7">
</g>
<g id="Layer_1">
</g>
<g id="Layer_2">
	<g>
		<path fill="#11B8C9" d="M48.211,22.562H16.428c-1.383,0-2.508,1.125-2.508,2.51v7.47v24.313c0,1.384,1.125,2.509,2.508,2.509
			h26.43h5.354c1.385,0,2.51-1.125,2.51-2.509V25.072C50.721,23.688,49.596,22.562,48.211,22.562z"/>
		<path fill="#FFFFFF" d="M55.572,12.636H23.789c-1.385,0-2.51,1.125-2.51,2.509v7.471v24.313c0,1.384,1.125,2.509,2.51,2.509h26.43
			h5.354c1.385,0,2.51-1.125,2.51-2.509V15.145C58.082,13.761,56.957,12.636,55.572,12.636z M42.625,44.652H26.064
			c-0.277,0-0.502-0.225-0.502-0.502s0.225-0.502,0.502-0.502h16.561c0.277,0,0.502,0.225,0.502,0.502S42.902,44.652,42.625,44.652z
			 M26.064,39.464c-0.277,0-0.502-0.225-0.502-0.502s0.225-0.502,0.502-0.502h27.23c0.277,0,0.502,0.225,0.502,0.502
			s-0.225,0.502-0.502,0.502H26.064z M26.064,26.122h9.518c0.277,0,0.502,0.225,0.502,0.502s-0.225,0.502-0.502,0.502h-9.518
			c-0.277,0-0.502-0.225-0.502-0.502S25.787,26.122,26.064,26.122z M25.562,21.671c0-0.277,0.225-0.502,0.502-0.502h9.518
			c0.277,0,0.502,0.225,0.502,0.502s-0.225,0.502-0.502,0.502h-9.518C25.787,22.173,25.562,21.948,25.562,21.671z M26.064,33.271
			h27.23c0.277,0,0.502,0.225,0.502,0.502s-0.225,0.502-0.502,0.502h-27.23c-0.277,0-0.502-0.225-0.502-0.502
			S25.787,33.271,26.064,33.271z M53.797,27.198c0,0.874-0.771,1.586-1.721,1.586H40.295c-0.949,0-1.721-0.712-1.721-1.586v-8.489
			c0-0.873,0.771-1.584,1.721-1.584h11.781c0.949,0,1.721,0.711,1.721,1.584V27.198z"/>
		<path fill="#11B8C9" d="M52.076,17.125H40.295c-0.949,0-1.721,0.711-1.721,1.584v8.489c0,0.874,0.771,1.586,1.721,1.586h11.781
			c0.949,0,1.721-0.712,1.721-1.586v-8.489C53.797,17.836,53.025,17.125,52.076,17.125z"/>
		<path fill="#11B8C9" d="M26.064,22.173h9.518c0.277,0,0.502-0.225,0.502-0.502s-0.225-0.502-0.502-0.502h-9.518
			c-0.277,0-0.502,0.225-0.502,0.502S25.787,22.173,26.064,22.173z"/>
		<path fill="#11B8C9" d="M26.064,27.126h9.518c0.277,0,0.502-0.225,0.502-0.502s-0.225-0.502-0.502-0.502h-9.518
			c-0.277,0-0.502,0.225-0.502,0.502S25.787,27.126,26.064,27.126z"/>
		<path fill="#11B8C9" d="M53.295,33.271h-27.23c-0.277,0-0.502,0.225-0.502,0.502s0.225,0.502,0.502,0.502h27.23
			c0.277,0,0.502-0.225,0.502-0.502S53.572,33.271,53.295,33.271z"/>
		<path fill="#11B8C9" d="M53.295,38.46h-27.23c-0.277,0-0.502,0.225-0.502,0.502s0.225,0.502,0.502,0.502h27.23
			c0.277,0,0.502-0.225,0.502-0.502S53.572,38.46,53.295,38.46z"/>
		<path fill="#11B8C9" d="M42.625,43.648H26.064c-0.277,0-0.502,0.225-0.502,0.502s0.225,0.502,0.502,0.502h16.561
			c0.277,0,0.502-0.225,0.502-0.502S42.902,43.648,42.625,43.648z"/>
	</g>
</g>
<g id="Layer_6" display="none">
</g>
<g id="Enter_your_city">
</g>
<g id="De">
</g>
<g id="Dehradun">
</g>
</svg>
