<?xml version="1.0" encoding="utf-8"?>
<!-- Generator: Adobe Illustrator 16.0.0, SVG Export Plug-In . SVG Version: 6.00 Build 0)  -->
<!DOCTYPE svg PUBLIC "-//W3C//DTD SVG 1.1//EN" "http://www.w3.org/Graphics/SVG/1.1/DTD/svg11.dtd">
<svg version="1.1" xmlns="http://www.w3.org/2000/svg" xmlns:xlink="http://www.w3.org/1999/xlink" x="0px" y="0px" width="24px"
	 height="24px" viewBox="0 0 24 24" enable-background="new 0 0 24 24" xml:space="preserve">
<g id="waves_fill" display="none">
</g>
<g id="Layer_7">
</g>
<g id="Layer_1">
	<g>
		<path fill="#1AE5E5" d="M9.316,18.128c-1.186,0-2.148,0.965-2.148,2.149s0.963,2.147,2.148,2.147s2.148-0.963,2.148-2.147
			S10.502,18.128,9.316,18.128z M9.316,21.425c-0.633,0-1.148-0.515-1.148-1.147c0-0.634,0.516-1.149,1.148-1.149
			s1.148,0.516,1.148,1.149C10.465,20.91,9.949,21.425,9.316,21.425z"/>
		<path fill="#1AE5E5" d="M15.754,18.128c-1.186,0-2.148,0.965-2.148,2.149s0.963,2.147,2.148,2.147s2.15-0.963,2.15-2.147
			S16.939,18.128,15.754,18.128z M15.754,21.425c-0.633,0-1.148-0.515-1.148-1.147c0-0.634,0.516-1.149,1.148-1.149
			s1.15,0.516,1.15,1.149C16.904,20.91,16.387,21.425,15.754,21.425z"/>
		<path fill="#1AE5E5" d="M21.992,1.575H19.74c-0.266,0-0.477,0.17-0.604,0.42h-0.729c-0.029,0-0.061,0.014-0.088,0.02
			c-0.031,0.005-0.059,0.006-0.084,0.016c-0.035,0.014-0.062,0.034-0.092,0.054c-0.025,0.016-0.049,0.028-0.072,0.048
			c-0.023,0.021-0.039,0.049-0.059,0.075s-0.039,0.05-0.053,0.079c-0.016,0.029-0.021,0.062-0.029,0.095
			c-0.004,0.026-0.018,0.05-0.021,0.078l-0.832,11.352H6.691L3.184,3.747L3.176,3.733C3.162,3.698,3.139,3.669,3.119,3.638
			C3.104,3.614,3.094,3.589,3.072,3.568C3.051,3.544,3.021,3.528,2.994,3.51C2.967,3.492,2.945,3.471,2.918,3.458
			C2.891,3.446,2.863,3.444,2.836,3.437c-0.037-0.01-0.072-0.021-0.109-0.021C2.723,3.414,2.719,3.411,2.713,3.411H1.781
			c-0.277,0-0.5,0.225-0.5,0.5c0,0.277,0.223,0.5,0.5,0.5h0.574l4.174,11.975l0.008,0.01c0.031,0.087,0.09,0.158,0.162,0.214
			c0.016,0.013,0.031,0.021,0.047,0.031c0.076,0.047,0.16,0.081,0.256,0.081h10.402c0.262,0,0.479-0.202,0.496-0.463l0.973-13.264
			h0.264c0.127,0.251,0.338,0.422,0.604,0.422h2.252c0.414,0,0.727-0.396,0.727-0.922C22.719,1.971,22.406,1.575,21.992,1.575z
			 M16.939,15.722h-9.58l-0.318-0.911h9.965L16.939,15.722z"/>
	</g>
</g>
<g id="Layer_2">
</g>
<g id="Layer_6" display="none">
</g>
<g id="Enter_your_city">
</g>
<g id="De">
</g>
<g id="Dehradun">
</g>
</svg>
