<?xml version="1.0" encoding="utf-8"?>
<!-- Generator: Adobe Illustrator 20.1.0, SVG Export Plug-In . SVG Version: 6.00 Build 0)  -->
<!DOCTYPE svg PUBLIC "-//W3C//DTD SVG 1.1//EN" "http://www.w3.org/Graphics/SVG/1.1/DTD/svg11.dtd">
<svg version="1.1" id="Layer_1" xmlns="http://www.w3.org/2000/svg" xmlns:xlink="http://www.w3.org/1999/xlink" x="0px" y="0px"
	 viewBox="0 0 72 72" enable-background="new 0 0 72 72" xml:space="preserve">
<g>
	<g>
		<g>
			<path fill="#384650" d="M28.8,13.9"/>
		</g>
	</g>
	<g>
		<g>
			<path fill="#384650" d="M30.3,13.6"/>
		</g>
	</g>
	<path fill="#FFFFFF" d="M46.7,13.3H30.6c-0.1,0-1.3,0.1-2,0.3l0,0c-3.9,1.1-6.6,4.6-6.6,8.7c0,0,0,0,0,0.1c0,0,0,0,0,0.1v10.2
		c0,0.6,0.1,1.3,0.2,1.9c0,0.1,0.1,0.2,0.3,0.2c0,0,0,0,0.1,0s0.1-0.1,0.2-0.1l8.3,5.9l10,0.8l0,0c0,0.1,0.1,0.3,0.3,0.3H47
		c0.1,0,2.9,0,3.5,0l5.6,4.1V22.4C55.8,17.4,51.7,13.3,46.7,13.3z"/>
	<g>
		<path opacity="0.1" fill="#040505" enable-background="new    " d="M46.7,13.3h-2.8c5,0,9,4.1,9,9v21.4l2.8,2V22.4
			C55.8,17.4,51.7,13.3,46.7,13.3z"/>
		<path opacity="0.1" fill="#040505" enable-background="new    " d="M47.4,41.7c-0.6,0-3.4,0-3.5,0h2.8
			C46.8,41.7,47,41.7,47.4,41.7L47.4,41.7z"/>
	</g>
	<g>
		<g>
			<path fill="#384650" d="M26.7,41.3h-4.9c-0.1,0-0.3-0.1-0.3-0.3c0-0.1,0.1-0.3,0.3-0.3h4.9c0.1,0,0.3,0.1,0.3,0.3
				C26.9,41.2,26.8,41.3,26.7,41.3z"/>
		</g>
	</g>
	<path fill="#1CB7C7" d="M41.2,40.7c0,0,0-0.2,0-0.5c-0.2-0.9-0.3-1.3-0.4-1.5c-1-2.6-3.6-4.4-6.4-4.4H22.9c-3.8,0-6.9,3.1-6.9,6.9
		v12.1v0.3v5l5.1-5l14.6,0.2c1.5,0,2.9-0.5,3.9-1.6c1.1-1,1.6-2.4,1.6-3.9v-7.1C41.2,41.1,41.2,40.9,41.2,40.7z"/>
	<g>
		<polygon opacity="0.1" fill="#040505" enable-background="new    " points="18.4,53.7 16,56.1 16,58.7 21,53.7 		"/>
		<path opacity="0.1" fill="#040505" enable-background="new    " d="M41.2,40.7c0,0,0-0.2,0-0.5c-0.2-0.9-0.3-1.3-0.4-1.5
			c-1-2.6-3.6-4.4-6.4-4.4h-2.6c2.8,0,5.4,1.8,6.4,4.4c0.1,0.1,0.2,0.6,0.4,1.5c0.1,0.3,0.1,0.4,0,0.5c0,0.2,0,0.3,0,0.5v7.1
			c0,1.5-0.6,2.9-1.6,3.9s-2.2,1.5-3.6,1.6h2.3c1.5,0,2.9-0.5,3.9-1.6c1.1-1,1.6-2.4,1.6-3.9v-7.1C41.2,41.1,41.2,40.9,41.2,40.7z"
			/>
	</g>
	<circle fill="#0997A6" cx="31.9" cy="29.4" r="1.6"/>
	<circle fill="#0997A6" cx="38.8" cy="29.4" r="1.6"/>
	<circle fill="#0997A6" cx="45.7" cy="29.4" r="1.6"/>
	<g>
		<g>
			<path fill="#FFFFFF" d="M25.4,41.2h-4.9c-0.1,0-0.3-0.1-0.3-0.3c0-0.1,0.1-0.3,0.3-0.3h4.9c0.1,0,0.3,0.1,0.3,0.3
				S25.5,41.2,25.4,41.2z"/>
		</g>
	</g>
	<g>
		<g>
			<path fill="#FFFFFF" d="M34.6,44.7H20.5c-0.1,0-0.3-0.1-0.3-0.3c0-0.1,0.1-0.3,0.3-0.3h14.1c0.1,0,0.3,0.1,0.3,0.3
				C34.8,44.6,34.7,44.7,34.6,44.7z"/>
		</g>
	</g>
	<g>
		<g>
			<path fill="#FFFFFF" d="M34.6,48.9H20.5c-0.1,0-0.3-0.1-0.3-0.3c0-0.1,0.1-0.3,0.3-0.3h14.1c0.1,0,0.3,0.1,0.3,0.3
				C34.8,48.8,34.7,48.9,34.6,48.9z"/>
		</g>
	</g>
</g>
</svg>
