<?xml version="1.0" encoding="utf-8"?>
<!-- Generator: Adobe Illustrator 16.0.0, SVG Export Plug-In . SVG Version: 6.00 Build 0)  -->
<!DOCTYPE svg PUBLIC "-//W3C//DTD SVG 1.1//EN" "http://www.w3.org/Graphics/SVG/1.1/DTD/svg11.dtd">
<svg version="1.1" xmlns="http://www.w3.org/2000/svg" xmlns:xlink="http://www.w3.org/1999/xlink" x="0px" y="0px"  viewBox="0 0 72 72" enable-background="new 0 0 72 72" xml:space="preserve">
<g id="waves_fill" display="none">
</g>
<g id="Layer_7">
</g>
<g id="Layer_1">
</g>
<g id="Layer_2">
	<g>
		<g>
			<path fill="#FFFFFF" d="M51.072,14.702c-0.241,0.058-2.424,0.619-4.809,2.56c-2.242,1.826-5.103,5.279-6.008,11.358
				c-0.039,0.265,0.027,0.528,0.186,0.744c0.16,0.215,0.393,0.355,0.66,0.396l0.148,0.011c0.491,0,0.918-0.367,0.988-0.854
				c0.809-5.421,3.303-8.467,5.252-10.067c1.994-1.638,3.838-2.144,4.035-2.194c0.538-0.124,0.876-0.663,0.752-1.201
				C52.154,14.924,51.66,14.573,51.072,14.702z"/>
			<path fill="#FFFFFF" d="M57.479,17.198c-0.276-0.454-0.923-0.614-1.378-0.338c-0.229,0.14-0.391,0.36-0.454,0.622
				c-0.063,0.26-0.021,0.528,0.116,0.753c0.041,0.068,4.013,6.979-2.31,15.24c-0.163,0.213-0.233,0.476-0.198,0.742
				c0.037,0.266,0.172,0.501,0.385,0.662c0.175,0.135,0.385,0.205,0.609,0.205c0.313,0,0.604-0.142,0.797-0.392
				C62.277,25.241,57.525,17.275,57.479,17.198z"/>
		</g>
		<path fill="#11B8C9" d="M42.158,46.549c-0.111-0.245-0.312-0.431-0.563-0.522c-0.5-0.187-1.102,0.09-1.287,0.592
			c-2.227,6.021-6.881,9.837-12.451,10.21c-4.866,0.34-9.332-2.09-11.468-6.12c-3.137-5.915-1.008-14.345,5.84-23.127
			c0.164-0.211,0.239-0.474,0.207-0.739c-0.033-0.266-0.168-0.503-0.379-0.666c-0.421-0.331-1.075-0.25-1.407,0.172
			c-10.072,12.917-8.103,21.396-6.031,25.3c2.361,4.449,7.103,7.213,12.376,7.213c0.33,0,0.662-0.012,0.995-0.034
			c6.382-0.426,11.689-4.729,14.196-11.51C42.28,47.066,42.27,46.794,42.158,46.549z"/>
		<g>
			<path fill="#60E2D2" d="M43.541,37.665c-3.044-2.023-4.457-5.826-3.425-9.377l2.552,1.082c-0.607,2.645,0.745,5.422,3.326,6.516
				c2.587,1.096,5.521,0.133,6.999-2.143l2.553,1.084c-1.83,3.209-5.552,4.84-9.119,4.059"/>
			<path fill="#60E2D2" d="M46.427,38.886c-0.03,0.154-0.073,0.312-0.14,0.473l-2.979,7.029c-0.287,0.682-0.817,1.105-1.183,0.949
				l-1.66-0.701c-0.366-0.156-0.43-0.832-0.143-1.512l2.979-7.033c0.069-0.158,0.153-0.299,0.24-0.426"/>
		</g>
		<path fill="#FFFFFF" d="M33.175,22.222c0-3.77-3.059-6.826-6.828-6.826c-3.772,0-6.829,3.057-6.829,6.826
			c0,3.773,3.057,6.828,6.829,6.828C30.116,29.05,33.175,25.995,33.175,22.222z"/>
		<g>
			<path fill="#11B8C9" d="M25.553,26.677c-2.815,0-5.107-2.291-5.107-5.109c0-2.814,2.292-5.105,5.107-5.105
				c2.818,0,5.109,2.291,5.109,5.105C30.662,24.386,28.371,26.677,25.553,26.677z M25.553,16.985c-2.527,0-4.584,2.055-4.584,4.582
				c0,2.529,2.057,4.586,4.584,4.586c2.531,0,4.587-2.057,4.587-4.586C30.14,19.04,28.084,16.985,25.553,16.985z"/>
		</g>
		<g opacity="0.3">
			<path d="M43.541,37.665c-3.044-2.023-4.457-5.826-3.425-9.377l2.552,1.082c-0.607,2.645,0.745,5.422,3.326,6.516
				c2.587,1.096,5.521,0.133,6.999-2.143l2.553,1.084c-1.83,3.209-5.552,4.84-9.119,4.059"/>
			<path d="M46.427,38.886c-0.03,0.154-0.073,0.312-0.14,0.473l-2.979,7.029c-0.287,0.682-0.817,1.105-1.183,0.949l-1.66-0.701
				c-0.366-0.156-0.43-0.832-0.143-1.512l2.979-7.033c0.069-0.158,0.153-0.299,0.24-0.426"/>
		</g>
		<path fill="#0FD6EA" d="M52.993,33.743c-1.479,2.275-4.412,3.238-6.999,2.143c-2.581-1.094-3.934-3.871-3.326-6.516l-2.552-1.082
			c-1.032,3.551,0.381,7.354,3.425,9.377c-0.087,0.127-0.171,0.268-0.24,0.426l-2.979,7.033c-0.287,0.68-0.224,1.355,0.143,1.512
			l1.66,0.701c0.365,0.156,0.896-0.268,1.183-0.949l2.979-7.029c0.066-0.16,0.109-0.318,0.14-0.473
			c3.567,0.781,7.289-0.85,9.119-4.059L52.993,33.743z"/>
		<g opacity="0.7">
			<path opacity="0.3" d="M41.392,28.829c-0.473,2.525,0.808,5.123,3.227,6.225c-1.659-1.355-2.437-3.561-1.95-5.684L41.392,28.829z
				"/>
			<path opacity="0.3" d="M54.189,34.251c-1.867,3.082-5.501,4.635-8.997,3.871c-0.031,0.152-0.074,0.312-0.141,0.471l-2.979,7.029
				c-0.29,0.684-0.818,1.107-1.186,0.949l-0.702-0.295c0.052,0.172,0.146,0.303,0.279,0.359l1.66,0.701
				c0.365,0.156,0.896-0.268,1.183-0.949l2.979-7.029c0.066-0.16,0.109-0.318,0.14-0.473c3.567,0.781,7.289-0.85,9.119-4.059
				L54.189,34.251z"/>
		</g>
		<path opacity="0.3" d="M29.091,15.974c1.679,1.244,2.772,3.234,2.772,5.482c0,3.773-3.059,6.83-6.828,6.83
			c-0.976,0-1.903-0.209-2.744-0.58c1.133,0.84,2.534,1.344,4.056,1.344c3.77,0,6.828-3.055,6.828-6.828
			C33.175,19.431,31.494,17.032,29.091,15.974z"/>
		<path fill="#11B8C9" d="M53.41,15.69c0.587-0.576,0.591-1.52,0.013-2.107c-0.58-0.584-1.524-0.592-2.108-0.016
			c-0.587,0.582-0.594,1.525-0.014,2.111C51.878,16.263,52.825,16.271,53.41,15.69z"/>
		<path fill="#11B8C9" d="M55.137,16.2c0.008-0.822,0.681-1.484,1.508-1.473c0.824,0.014,1.489,0.689,1.482,1.512
			c-0.005,0.826-0.682,1.488-1.505,1.479C55.798,17.706,55.132,17.026,55.137,16.2z"/>
		<path opacity="0.3" d="M52.993,13.286c0.346,0.578,0.271,1.334-0.228,1.824c-0.457,0.453-1.13,0.541-1.682,0.283
			c0.061,0.102,0.13,0.197,0.217,0.285c0.577,0.584,1.524,0.592,2.109,0.012c0.587-0.576,0.591-1.52,0.013-2.107
			C53.294,13.454,53.149,13.358,52.993,13.286z"/>
		<path opacity="0.3" d="M57.473,14.991c0.111,0.213,0.181,0.449,0.178,0.705c-0.006,0.824-0.682,1.488-1.504,1.477
			c-0.308-0.004-0.594-0.102-0.829-0.264c0.25,0.471,0.735,0.799,1.305,0.809c0.823,0.01,1.5-0.652,1.505-1.479
			C58.132,15.724,57.87,15.265,57.473,14.991z"/>
	</g>
</g>
<g id="Layer_6" display="none">
</g>
<g id="Enter_your_city">
</g>
<g id="De">
</g>
<g id="Dehradun">
</g>
</svg>
