<?xml version="1.0" encoding="utf-8"?>
<!-- Generator: Adobe Illustrator 16.0.0, SVG Export Plug-In . SVG Version: 6.00 Build 0)  -->
<!DOCTYPE svg PUBLIC "-//W3C//DTD SVG 1.1//EN" "http://www.w3.org/Graphics/SVG/1.1/DTD/svg11.dtd">
<svg version="1.1" id="Layer_1" xmlns="http://www.w3.org/2000/svg" xmlns:xlink="http://www.w3.org/1999/xlink" x="0px" y="0px"
	 width="90px" height="26px" viewBox="-14.333 -20 90 26" enable-background="new -14.333 -20 90 26" xml:space="preserve">
<g id="waves_fill" display="none">
</g>
<g id="Layer_7">
</g>
<g>
	<g>
		<polygon fill="#F95548" points="57.383,-19 48.549,-19 60.281,-7.001 48.549,5 57.383,5 69.115,-7.001 		"/>
		<polygon fill="#F95548" points="63.049,-19 61.215,-19 72.947,-7.001 61.215,5 63.049,5 74.781,-7.001 		"/>
		<polygon fill="#F95548" points="42.549,-19 34.405,-19 -13.449,-19 -13.449,5 34.405,5 42.549,5 54.281,-7.001 		"/>
	</g>
	<g>
		<path fill="#FFFFFF" d="M8.722-2.945L6.752-9.314L5.404-2.945H4.098l1.717-8.109h1.74L9.376-5.13l1.26-5.924h1.312l-1.717,8.109
			H8.722z"/>
		<path fill="#FFFFFF" d="M12.125-2.945l1.717-8.109h5.016l-0.264,1.219H14.92l-0.428,2.057h3.117l-0.252,1.225h-3.117l-0.516,2.361
			h3.668l-0.252,1.248h-5.015V-2.945z"/>
		<path fill="#FFFFFF" d="M25.79-2.945h-1.459l-0.17-5.93l-2.678,5.93h-1.441l-0.223-8.109h1.307l0.117,5.947l2.654-5.947h1.4
			l0.17,5.947l2.666-5.947h1.365L25.79-2.945z"/>
	</g>
</g>
<g id="Layer_2">
</g>
<g id="Layer_6" display="none">
</g>
<g id="Enter_your_city">
</g>
<g id="De" display="none">
</g>
<g id="Dehradun" display="none">
</g>
</svg>
